<svg width="4801" height="934" viewBox="0 0 4801 934" fill="none" xmlns="http://www.w3.org/2000/svg">
<g clip-path="url(#clip0_35_4)">
<g filter="url(#filter0_d_35_4)">
<path d="M-39.3159 623.215V-35.231L4881.07 11.5372V533.371C4300.32 889.055 3563.02 1153.66 2423.4 550.602C1404.72 11.5372 351.779 370.913 -39.3159 623.215Z" fill="url(#paint0_linear_35_4)"/>
</g>
<path d="M-27.5327 584.126V-47.5386L4901.27 -2.67271V497.936C4319.53 839.153 3580.97 1093 2439.4 514.465C1418.98 -2.67271 364.231 342.086 -27.5327 584.126Z" fill="url(#paint1_linear_35_4)"/>
<path d="M-14.0659 534.866V-40.1541L4904.64 0.688515V456.406C4324.09 767.024 3587.04 998.107 2447.81 471.453C1429.48 0.688515 376.895 314.531 -14.0659 534.866Z" fill="url(#paint2_linear_35_4)"/>
<path d="M-14.0659 494.642V-42.6157L4864.24 -4.45535V421.334C4288.45 711.554 3557.46 927.461 2427.59 435.393C1417.62 -4.45535 373.684 288.777 -14.0659 494.642Z" fill="url(#paint3_linear_35_4)"/>
<path d="M-34.2656 408.3V-50L4918.1 -17.4479V345.766C4333.58 593.333 3591.49 777.51 2444.46 357.758C1419.16 -17.4479 359.371 232.69 -34.2656 408.3Z" fill="url(#paint4_linear_35_4)"/>
</g>
<defs>
<filter id="filter0_d_35_4" x="-43.3159" y="-35.231" width="4928.39" height="952.231" filterUnits="userSpaceOnUse" color-interpolation-filters="sRGB">
<feFlood flood-opacity="0" result="BackgroundImageFix"/>
<feColorMatrix in="SourceAlpha" type="matrix" values="0 0 0 0 0 0 0 0 0 0 0 0 0 0 0 0 0 0 127 0" result="hardAlpha"/>
<feOffset dy="4"/>
<feGaussianBlur stdDeviation="2"/>
<feComposite in2="hardAlpha" operator="out"/>
<feColorMatrix type="matrix" values="0 0 0 0 0 0 0 0 0 0 0 0 0 0 0 0 0 0 0.25 0"/>
<feBlend mode="normal" in2="BackgroundImageFix" result="effect1_dropShadow_35_4"/>
<feBlend mode="normal" in="SourceGraphic" in2="effect1_dropShadow_35_4" result="shape"/>
</filter>
<linearGradient id="paint0_linear_35_4" x1="4881.07" y1="436.884" x2="-39.3159" y2="436.884" gradientUnits="userSpaceOnUse">
<stop stop-color="#E6D467"/>
<stop offset="1" stop-color="#F1D8D9"/>
</linearGradient>
<linearGradient id="paint1_linear_35_4" x1="4901.27" y1="405.374" x2="-27.5327" y2="405.374" gradientUnits="userSpaceOnUse">
<stop stop-color="#E5CB6A"/>
<stop offset="1" stop-color="#E29FC1"/>
</linearGradient>
<linearGradient id="paint2_linear_35_4" x1="4904.64" y1="372.144" x2="-14.0659" y2="372.144" gradientUnits="userSpaceOnUse">
<stop stop-color="#F1D8D9"/>
<stop offset="1" stop-color="#E49FC5"/>
</linearGradient>
<linearGradient id="paint3_linear_35_4" x1="4864.24" y1="342.606" x2="-14.0659" y2="342.606" gradientUnits="userSpaceOnUse">
<stop stop-color="#E49FC5"/>
<stop offset="1" stop-color="#5C529A"/>
</linearGradient>
<linearGradient id="paint4_linear_35_4" x1="4918.1" y1="278.608" x2="-34.2656" y2="278.608" gradientUnits="userSpaceOnUse">
<stop stop-color="#F1D8D9"/>
<stop offset="1" stop-color="#5C529A"/>
</linearGradient>
<clipPath id="clip0_35_4">
<rect width="4801" height="934" fill="white"/>
</clipPath>
</defs>
</svg>
